PathFileType	4	(X/Y/Z)	C:\Users\Basilio\Documents\Thesis Gigler\squatting_fais\c3dfiles\039\SJ_pre5\markers_experimental.trc
DataRate	CameraRate	NumFrames	NumMarkers	Units	OrigDataRate	OrigDataStartFrame	OrigNumFrames
200.000000	200.000000	4	61	mm	200.000000	815	1630
Frame#	Time	FHD			LBHD			RBHD			C7			T10			CLAV			LSHO			LUUPA			LMUPA			LDUPA			LLEP			LMEP			LRAD			LUL			LRFIN			RSHO			RUPA1			RMUPA			RDUPA			RLEP			RMEP			RRAD			RUL			RUFIN			LASI			RASI			USACR			LSACR			RSACR			LTHI1			LTHI2			LTHI3			LTHI4			LLFC			LMFC			LTIB1			LTIB2			LTIB3			LTIB4			LLMAL			LMMAL			LHEE			LMT1			LMT2			LMT5			RTHI			RTHI2			RTHI3			RTHI4			RLFC			RMFC			RTIB1			RTIB2			RTIB3			RTIB4			RLMAL			RMMAL			RHEE			RMT1			RMT2			RMT5			
		X1	Y1	Z1	X2	Y2	Z2	X3	Y3	Z3	X4	Y4	Z4	X5	Y5	Z5	X6	Y6	Z6	X7	Y7	Z7	X8	Y8	Z8	X9	Y9	Z9	X10	Y10	Z10	X11	Y11	Z11	X12	Y12	Z12	X13	Y13	Z13	X14	Y14	Z14	X15	Y15	Z15	X16	Y16	Z16	X17	Y17	Z17	X18	Y18	Z18	X19	Y19	Z19	X20	Y20	Z20	X21	Y21	Z21	X22	Y22	Z22	X23	Y23	Z23	X24	Y24	Z24	X25	Y25	Z25	X26	Y26	Z26	X27	Y27	Z27	X28	Y28	Z28	X29	Y29	Z29	X30	Y30	Z30	X31	Y31	Z31	X32	Y32	Z32	X33	Y33	Z33	X34	Y34	Z34	X35	Y35	Z35	X36	Y36	Z36	X37	Y37	Z37	X38	Y38	Z38	X39	Y39	Z39	X40	Y40	Z40	X41	Y41	Z41	X42	Y42	Z42	X43	Y43	Z43	X44	Y44	Z44	X45	Y45	Z45	X46	Y46	Z46	X47	Y47	Z47	X48	Y48	Z48	X49	Y49	Z49	X50	Y50	Z50	X51	Y51	Z51	X52	Y52	Z52	X53	Y53	Z53	X54	Y54	Z54	X55	Y55	Z55	X56	Y56	Z56	X57	Y57	Z57	X58	Y58	Z58	X59	Y59	Z59	X60	Y60	Z60	X61	Y61	Z61	

816	4.075	195.3847198486329	1052.059814453125	-800.0669555664065	43.19638061523438	1055.4228515625	-929.9072875976565	62.3173294067383	1051.608764648438	-788.6025390625002	-19.07262420654297	998.281677246094	-872.645935058594	-306.8379516601563	910.1004028320315	-877.8115844726565	-2.06342625617981	836.8955078125002	-873.6460571289065	41.60758209228516	889.4925537109377	-1053.939086914063	-77.05972290039064	887.0535278320315	-1246.423828125	-96.45160675048831	841.134460449219	-1245.43359375	-121.9760360717774	862.1619262695315	-1294.9072265625	-182.0289459228516	833.5053710937502	-1326.952880859375	-223.1811065673829	911.7386474609377	-1310.268920898438	-420.2991638183595	802.6563720703127	-1154.578857421875	-408.429412841797	733.6152343750001	-1184.812866210938	-395.1026916503907	788.3772583007815	-1092.595947265625	23.63479995727539	879.8643188476565	-687.8601684570314	-111.6471252441407	939.4506835937502	-531.8304443359376	-134.4600219726563	896.943054199219	-517.6652832031251	-162.6963653564453	936.710632324219	-482.7265014648439	-222.7769165039063	911.309753417969	-450.1972656250001	-259.8943176269532	985.9017333984377	-488.0344238281251	-417.9218750000001	841.288024902344	-671.6992797851564	-435.7013549804689	789.2687988281252	-618.9486083984376	-385.601776123047	795.780212402344	-720.0888671875001	-379.0704650878907	744.6912231445314	-1033.0087890625	-369.7530822753907	697.9744262695314	-808.3470458984377	-467.2171325683595	876.262878417969	-876.0491333007815	-497.0840759277345	867.1375732421877	-905.5938720703127	-496.3554687500001	855.5660400390627	-847.3169555664065	-334.4450988769532	602.6132812500001	-1102.219604492188	-249.8325347900391	584.7708740234376	-1109.58740234375	-218.7392730712891	619.4715576171876	-1098.895263671875	-223.6741333007813	529.1854858398439	-1100.143798828125	-138.1491394042969	472.2482910156251	-1089.035522460938	-103.964584350586	452.775604248047	-984.5775146484377	-105.4945831298828	332.0660095214844	-1075.929077148438	-183.1599731445313	318.8240966796876	-1117.382446289063	-149.2215881347657	301.3245239257813	-1098.225830078125	-178.105453491211	226.7287292480469	-1060.808715820313	-304.7775268554688	99.13346099853518	-1093.813842773438	-282.4642028808594	87.51377105712892	-1008.798278808594	-379.8098449707032	43.37766647338868	-1054.4814453125	-145.5243682861328	53.10094070434572	-1069.076293945313	-157.6737365722657	55.10533523559572	-1110.6787109375	-207.1341094970704	33.89823532104493	-1157.55322265625	-338.1612854003907	614.9568481445314	-683.8919067382814	-271.6017150878907	618.5939331054689	-675.6688842773439	-253.8487091064454	645.2915649414064	-687.9003906250001	-221.1420593261719	552.7679443359376	-662.6311035156251	-147.3736419677735	460.204559326172	-676.1686401367189	-109.338623046875	459.3445434570314	-781.295837402344	-159.6204223632813	268.4191589355469	-691.5747680664064	-260.0550231933594	231.1213836669922	-683.6557617187501	-218.1414642333985	209.7739562988282	-685.9863891601564	-215.5245819091797	157.480712890625	-714.4133300781251	-307.2646789550782	91.33654785156251	-694.8354492187501	-272.4408264160157	95.09043121337892	-778.8674926757815	-377.8493652343751	42.30510330200196	-743.9699707031251	-144.5500640869141	49.38962554931642	-719.1347656250001	-154.4678344726563	57.40712356567384	-674.7271728515626	-212.1823883056641	33.18581771850587	-627.4224243164064	
817	4.08	195.4485473632813	1051.011962890625	-800.2288818359377	42.95713043212891	1054.246704101563	-929.760437011719	62.39086151123048	1050.780883789063	-789.078308105469	-18.90678596496582	997.1888427734377	-872.7925415039065	-306.7672119140626	909.520690917969	-877.916687011719	-1.939994454383851	835.0938110351565	-873.2717895507815	41.88743972778321	888.0111083984377	-1053.993286132813	-76.95635223388673	886.1672973632815	-1246.392822265625	-96.44107818603518	840.1528930664065	-1245.5634765625	-121.7418746948242	861.4981689453127	-1295.100952148438	-181.9342651367188	833.018005371094	-1327.143310546875	-222.9801788330079	911.1882934570315	-1310.32861328125	-420.3914794921876	802.4172363281252	-1154.698852539063	-408.6409301757814	733.4732666015626	-1184.910522460938	-395.1793212890626	788.2316894531252	-1092.682983398438	23.64950752258301	878.387634277344	-687.7667236328126	-111.5030899047852	938.5902099609377	-531.8925781250001	-134.3330993652344	895.6336669921877	-517.5910034179689	-162.4718017578125	935.880798339844	-482.797332763672	-223.1153259277344	910.2310180664065	-450.5957946777345	-259.6336364746094	985.155456542969	-488.1083068847657	-417.892303466797	840.947204589844	-671.8609619140626	-435.809783935547	788.9241333007815	-619.1286010742189	-385.928924560547	795.440612792969	-720.2688598632814	-378.7516174316407	741.5441894531251	-1030.355224609375	-373.5102233886719	696.9265747070314	-805.0882568359377	-467.4289855957032	875.8601684570315	-876.082946777344	-497.1608276367189	866.7069091796877	-905.9012451171877	-497.5543518066407	855.6670532226565	-847.5622558593752	-334.4916381835938	602.3606567382814	-1102.241577148438	-249.8270263671876	584.5293579101564	-1109.591552734375	-219.0444030761719	619.4710083007814	-1098.913696289063	-223.6529998779297	529.1026611328126	-1100.634033203125	-138.1032104492188	472.1946105957032	-1088.969604492188	-103.8440170288086	452.5539550781251	-984.5583496093752	-105.4349975585938	331.9822387695313	-1075.940185546875	-183.2649383544922	318.9017333984376	-1117.3544921875	-149.3509216308594	301.3478698730469	-1098.193481445313	-178.0690002441407	226.6709747314454	-1060.758666992188	-304.7427673339844	99.09848785400393	-1093.745483398438	-282.4313659667969	87.43028259277345	-1008.796264648438	-379.7929687500001	43.38626861572266	-1054.48046875	-145.5584259033203	53.06060028076173	-1069.14892578125	-157.6761016845703	55.10634231567384	-1110.698486328125	-206.7135009765626	33.57007598876954	-1157.558959960938	-338.2251892089844	614.7216186523439	-684.0400390625001	-271.6104736328126	618.3766479492189	-675.8991088867189	-253.8526763916016	644.9857788085939	-688.1353149414064	-221.1201782226563	552.6949462890626	-662.7788696289064	-147.2602081298828	460.2119445800782	-676.3680419921876	-109.1433944702149	459.3278198242189	-781.5915527343752	-159.5253143310547	268.4039306640626	-691.6342773437501	-259.9847106933594	231.0756378173829	-683.8493041992189	-218.0974273681641	209.7688140869141	-686.1268920898439	-215.5047912597657	157.4679412841797	-714.5086669921876	-307.2454833984376	91.38501739501955	-694.8695678710939	-272.3541870117188	95.02053833007814	-778.928894042969	-377.8476562500001	42.30664825439454	-743.9547729492189	-144.2160186767578	48.98313903808595	-719.0233764648439	-154.4603576660157	57.37890243530275	-674.7454223632814	-212.1446075439454	33.17362976074219	-627.4622802734376	
818	4.085	195.5140533447266	1049.331787109375	-800.2536621093752	43.30763626098634	1052.791870117188	-929.962585449219	62.44083786010744	1049.4423828125	-789.159606933594	-18.72234153747559	995.8684082031252	-872.712341308594	-306.8282775878907	908.8655395507815	-877.9916992187502	-2.194213390350342	834.2072753906252	-873.6204223632815	41.9317741394043	886.7837524414065	-1053.937622070313	-76.95953369140626	885.0220947265627	-1246.439819335938	-96.46706390380862	839.2962036132815	-1245.488037109375	-121.9315567016602	861.1579589843752	-1295.248413085938	-181.7857360839844	832.3421630859377	-1327.283447265625	-223.1434173583985	910.436706542969	-1310.535522460938	-420.418426513672	802.1785278320315	-1154.76318359375	-408.7793884277345	733.2458496093751	-1184.935180664063	-395.5948486328126	788.0048828125002	-1092.947021484375	23.81714820861817	876.886413574219	-687.9679565429689	-111.3259735107422	937.274353027344	-531.9533691406251	-134.2713165283203	894.8013916015627	-517.7725830078126	-162.37109375	934.633972167969	-482.7788085937501	-222.9430694580079	909.2453613281252	-450.808563232422	-259.3497009277344	984.3584594726565	-488.1830139160157	-417.9931945800782	840.6118774414065	-672.0138549804689	-435.9672851562501	788.5849609375002	-619.2847900390626	-386.1338806152345	795.1597900390627	-720.4451904296876	-378.9439086914063	742.1652832031251	-1031.3427734375	-372.2156982421876	696.9849243164064	-806.1806640625002	-467.6339111328126	875.508239746094	-876.2109375000002	-497.4110412597657	866.2910156250002	-905.9429931640627	-497.4432678222657	855.0557250976565	-847.5272216796877	-334.6117858886719	602.1030883789064	-1102.266357421875	-249.9804382324219	584.4054565429689	-1109.6162109375	-219.1433410644532	619.3400268554689	-1098.968994140625	-223.7467041015626	528.9001464843751	-1100.680786132813	-138.1268615722657	472.1791992187501	-1089.026489257813	-103.7943344116211	452.6806945800782	-984.5355224609377	-105.3606948852539	331.9403076171876	-1075.851196289063	-183.2436218261719	318.9001159667969	-1117.346435546875	-149.2960815429688	301.2363281250001	-1098.119750976563	-178.0834197998047	226.6855163574219	-1060.822387695313	-304.7858886718751	99.110466003418	-1093.704956054688	-282.4518432617188	87.47708892822267	-1008.787475585938	-379.8586730957032	43.33812713623048	-1054.451904296875	-145.5210113525391	53.1270217895508	-1069.06982421875	-157.7519989013672	55.081844329834	-1110.688598632813	-207.218002319336	33.88446807861329	-1157.57275390625	-338.2610778808594	614.4139404296876	-684.1575927734376	-271.6554870605469	618.2836914062501	-676.1400146484376	-253.9172515869141	644.8090820312501	-688.3245849609376	-221.0395965576172	552.5840454101564	-662.9400634765626	-147.1552734375	460.206512451172	-676.5892333984376	-109.3092651367188	459.0969848632814	-781.691833496094	-159.4769439697266	268.4306335449219	-691.8003540039064	-259.9477233886719	231.1601257324219	-683.9224243164064	-218.0829162597657	209.7951660156251	-686.1786499023439	-215.4487762451172	157.5421447753907	-714.6042480468751	-307.2694091796876	91.44113159179689	-694.9260253906251	-272.3792114257813	95.0237274169922	-778.977233886719	-377.8389282226563	42.28248596191407	-744.0374755859376	-144.56103515625	49.35229110717775	-719.1937255859376	-154.482666015625	57.41527938842775	-674.7855224609376	-212.1625518798829	33.23234558105469	-627.4591674804689	
819	4.09	195.5118713378907	1048.163940429688	-800.3684692382815	43.13047409057618	1051.404907226563	-929.9637451171877	62.54113769531251	1047.992919921875	-789.2352294921877	-18.59925079345703	994.7559204101565	-872.8309326171877	-306.7941284179688	908.1753540039065	-878.0391845703127	-2.380777597427369	833.0637817382815	-873.614929199219	42.14534378051759	885.5759277343752	-1053.92138671875	-76.88509368896486	884.0244140625002	-1246.529663085938	-95.68770599365236	838.7512207031252	-1246.260131835938	-121.8526687622071	860.2806396484377	-1295.179321289063	-181.9255065917969	831.553405761719	-1327.233032226563	-222.9017333984376	909.8178710937502	-1310.499633789063	-420.4246826171876	802.0075683593752	-1154.794799804688	-408.9636840820314	733.0159301757814	-1185.039428710938	-395.5904846191407	787.7518310546877	-1092.935546875	23.87455368041993	875.4777832031252	-687.9133300781251	-111.0254516601563	936.2624511718752	-531.9734497070314	-134.1716766357422	893.6359863281252	-517.8205566406251	-162.2431945800782	933.7142333984377	-482.9114685058595	-222.5865020751954	908.8299560546877	-450.3995971679689	-259.0697937011719	983.6298828125002	-488.3466796875001	-418.1412353515626	840.3023681640627	-672.1643676757814	-436.0708923339845	788.2600097656252	-619.5000610351564	-386.1818237304689	794.8135375976565	-720.5788574218751	-378.9341735839844	743.1517333984376	-1032.52294921875	-370.5780029296876	697.1657104492189	-807.5316162109377	-467.7805175781251	875.1788330078127	-876.2593994140627	-497.6903076171876	865.8515625000002	-905.9990234375002	-497.2195739746095	854.4276123046877	-847.624450683594	-334.7275390625001	601.8144531250001	-1102.318603515625	-250.0494689941407	584.2693481445314	-1109.624633789063	-219.2259979248047	619.1839599609376	-1098.968872070313	-223.7843017578126	528.8073120117189	-1100.6904296875	-138.1783142089844	472.1777343750001	-1089.049682617188	-103.6681442260742	452.6761779785157	-984.4688720703127	-105.3430557250977	331.8637084960938	-1075.844116210938	-183.1422119140625	318.7659606933594	-1117.32861328125	-148.507308959961	301.4324340820313	-1098.5615234375	-178.0719909667969	226.6752471923829	-1060.780639648438	-304.7546386718751	99.09528350830081	-1093.70751953125	-282.4266967773438	87.4790725708008	-1008.740539550781	-379.7888183593751	43.45222854614259	-1054.459838867188	-145.5609588623047	53.11013031005861	-1069.079833984375	-157.7123260498047	55.08077621459962	-1110.691284179688	-207.1437377929688	33.89282608032227	-1157.574829101563	-338.3109130859376	614.1842651367189	-684.3341064453126	-271.6849670410157	618.1683959960939	-676.2816772460939	-253.9406738281251	644.6486816406251	-688.4748535156251	-220.9808502197266	552.5126953125001	-663.0566406250001	-147.0618133544922	460.1776123046876	-676.7417602539064	-109.1651153564453	459.0703430175782	-781.8812255859377	-159.4488677978516	268.3627014160157	-691.9837036132814	-259.9612426757813	231.1618347167969	-684.0919799804689	-218.0702056884766	209.8800811767579	-686.2726440429689	-215.3952331542969	157.5118103027344	-714.6803588867189	-307.2615356445313	91.43943786621095	-694.9168090820314	-272.3125915527344	94.99446868896486	-778.987487792969	-377.8519897460938	42.29944610595704	-744.0447387695314	-144.5150451660157	49.33774185180665	-719.1805419921876	-154.4454040527344	57.387508392334	-674.7601928710939	-212.1661529541016	33.19933700561524	-627.4853515625001	
